<svg width="67" height="19" viewBox="0 0 67 19" fill="none" xmlns="http://www.w3.org/2000/svg">
<path d="M0.436023 14.7414V7.47997H9.74588V7.05523H0.436023V0.43072H10.3345V0.00610352H0V15.166H10.4216V14.7414H0.436154H0.436023ZM18.8159 4.25253L14.9568 9.19972L11.1848 4.25266H10.6179L14.6951 9.51831L10.2254 15.1659H10.7487L14.9566 9.83652L19.1863 15.1659H19.7314L15.24 9.51806L19.3389 4.2524H18.8157L18.8159 4.25253ZM21.0397 18.903V12.1087H21.0833C21.345 13.0995 21.861 13.8957 22.6313 14.4974C23.4017 15.0989 24.3828 15.3997 25.5746 15.3997C26.345 15.3997 27.0282 15.2476 27.6242 14.9433C28.2201 14.6389 28.7179 14.2249 29.1177 13.7011C29.5173 13.1774 29.8226 12.5687 30.0334 11.8751C30.2441 11.1816 30.3496 10.4525 30.3496 9.68831C30.3496 8.86724 30.2404 8.10989 30.0224 7.41638C29.8044 6.72275 29.4882 6.12112 29.0741 5.61163C28.6598 5.10202 28.1583 4.70556 27.5696 4.42265C26.981 4.13949 26.316 3.99791 25.5746 3.99791C25.0078 3.99791 24.4809 4.07934 23.994 4.24208C23.5071 4.40494 23.0747 4.63484 22.6968 4.93214C22.3166 5.23174 21.9858 5.58615 21.7156 5.98311C21.4395 6.38657 21.2287 6.8289 21.0833 7.31023H21.0397V4.25253H20.6037V18.903H21.0397ZM25.5746 14.9962C24.2085 14.9962 23.1109 14.5397 22.2825 13.6267C21.454 12.7138 21.0397 11.4008 21.0397 9.68806C21.0397 8.98028 21.1415 8.30792 21.345 7.671C21.5485 7.03407 21.8428 6.47488 22.2279 5.99369C22.6132 5.51236 23.0892 5.13018 23.656 4.84714C24.2229 4.56398 24.8625 4.4224 25.5746 4.4224C26.3014 4.4224 26.9374 4.56398 27.4824 4.84714C28.0275 5.13018 28.4781 5.51593 28.8342 6.00426C29.1903 6.4926 29.4592 7.05179 29.641 7.68158C29.8226 8.31149 29.9134 8.98028 29.9134 9.68806C29.9134 10.3251 29.8299 10.9586 29.6627 11.5884C29.4956 12.2183 29.2375 12.7845 28.8886 13.2871C28.5399 13.7895 28.093 14.1999 27.5479 14.5185C27.0027 14.837 26.345 14.9962 25.5746 14.9962ZM32.7478 15.166V8.98741C32.7478 8.39292 32.835 7.81245 33.0095 7.24638C33.1838 6.68018 33.4528 6.18114 33.8162 5.74952C34.1796 5.31777 34.641 4.97802 35.2006 4.73028C35.7602 4.48255 36.4252 4.37996 37.1956 4.4224V3.99778C36.5269 3.98376 35.942 4.05436 35.4405 4.21009C34.9389 4.36582 34.5066 4.57813 34.1432 4.84714C33.7798 5.11603 33.4891 5.43093 33.2711 5.79195C33.0533 6.15241 32.8916 6.54237 32.7914 6.94907H32.7478V4.25253H32.3118V15.1662H32.7478V15.166ZM37.7406 9.79421H47.1158C47.145 9.04399 47.0687 8.3222 46.8869 7.62856C46.7053 6.93493 46.4145 6.31916 46.0149 5.78138C45.6151 5.24347 45.0991 4.81172 44.4668 4.48612C43.8345 4.16052 43.0823 3.99778 42.2103 3.99778C41.5851 3.99778 40.9747 4.12522 40.3788 4.38009C39.7828 4.63484 39.2595 5.00631 38.809 5.49465C38.3584 5.98298 37.995 6.58104 37.7189 7.28895C37.4428 7.9966 37.3046 8.8034 37.3046 9.70934C37.3046 10.5161 37.3991 11.2699 37.588 11.9706C37.777 12.6712 38.0676 13.28 38.4601 13.7966C38.8527 14.3132 39.3578 14.7131 39.9754 14.9962C40.5931 15.2793 41.3381 15.4138 42.2103 15.3996C43.4893 15.3996 44.5649 15.0492 45.437 14.3486C46.3092 13.6479 46.8251 12.6606 46.9851 11.3867H46.549C46.3601 12.5899 45.8767 13.4923 45.0991 14.0938C44.3214 14.6954 43.344 14.9962 42.1666 14.9962C41.3671 14.9962 40.6912 14.8617 40.1389 14.5928C39.5867 14.3239 39.136 13.9558 38.7871 13.4887C38.4384 13.0215 38.1803 12.473 38.0132 11.8431C37.846 11.2133 37.7552 10.5303 37.7406 9.79421ZM46.6798 9.36959H37.7408C37.7842 8.60523 37.9296 7.91873 38.1767 7.3101C38.4238 6.70134 38.7472 6.18114 39.147 5.74952C39.5466 5.31777 40.0118 4.98873 40.5423 4.76214C41.0728 4.53569 41.6434 4.4224 42.2538 4.4224C42.9806 4.4224 43.62 4.5534 44.1725 4.81528C44.7247 5.07717 45.1863 5.43462 45.557 5.88753C45.9276 6.34044 46.2074 6.86777 46.3963 7.46927C46.5853 8.07089 46.6798 8.70438 46.6798 9.36959ZM56.1641 7.47997H56.6001C56.6001 6.26258 56.2367 5.37791 55.51 4.82586C54.7831 4.27381 53.7947 3.99778 52.5448 3.99778C51.847 3.99778 51.2584 4.08278 50.7787 4.25266C50.2991 4.4224 49.9066 4.64184 49.6013 4.91073C49.2962 5.17962 49.0782 5.47693 48.9473 5.80253C48.8164 6.12813 48.751 6.43958 48.751 6.73677C48.751 7.33125 48.86 7.80544 49.0782 8.15933C49.2962 8.51322 49.6377 8.78925 50.1028 8.98741C50.4226 9.12887 50.7859 9.2563 51.193 9.36972C51.5999 9.48288 52.0723 9.60318 52.6102 9.73049C53.0898 9.84391 53.5622 9.95707 54.0274 10.0702C54.4925 10.1835 54.9031 10.3357 55.2592 10.5267C55.6154 10.7179 55.906 10.962 56.1313 11.2593C56.3566 11.5565 56.4692 11.9458 56.4692 12.427C56.4692 12.8942 56.3567 13.2905 56.1313 13.616C55.9079 13.9399 55.6139 14.2118 55.2702 14.4124C54.9213 14.6175 54.5324 14.7661 54.1037 14.8581C53.6749 14.9501 53.257 14.9962 52.85 14.9962C51.5273 14.9962 50.5134 14.7095 49.8085 14.1363C49.1035 13.563 48.7511 12.6606 48.7511 11.4291H48.315C48.315 12.8022 48.6966 13.8072 49.4596 14.4442C50.2228 15.0812 51.3529 15.3996 52.85 15.3996C53.3296 15.3996 53.8129 15.3465 54.3 15.2403C54.7868 15.1342 55.2229 14.9608 55.608 14.7201C55.9899 14.4828 56.3106 14.1632 56.5455 13.786C56.7854 13.4037 56.9054 12.9367 56.9054 12.3846C56.9054 11.8608 56.7999 11.4362 56.5892 11.1106C56.3784 10.7852 56.1023 10.5161 55.7606 10.3038C55.4191 10.0915 55.034 9.92521 54.6051 9.80492C54.1739 9.6839 53.7414 9.56708 53.3078 9.45447C52.7741 9.31812 52.24 9.18367 51.7053 9.05113C51.2475 8.93784 50.8224 8.8034 50.4299 8.64767C50.052 8.49194 49.7504 8.26906 49.525 7.97888C49.2997 7.68871 49.1872 7.27467 49.1872 6.73677C49.1872 6.63775 49.2162 6.46074 49.2743 6.20599C49.3324 5.95112 49.4706 5.69281 49.6886 5.43093C49.9066 5.16917 50.2408 4.93558 50.6915 4.73028C51.1421 4.52511 51.7599 4.4224 52.5448 4.4224C53.0826 4.4224 53.573 4.47911 54.0164 4.59227C54.4597 4.70556 54.8413 4.88601 55.161 5.13375C55.4808 5.38148 55.7279 5.69638 55.9023 6.07856C56.0768 6.46087 56.1641 6.92792 56.1641 7.47997ZM66.2587 7.47997H66.6947C66.6947 6.26258 66.3314 5.37791 65.6046 4.82586C64.8779 4.27381 63.8895 3.99778 62.6394 3.99778C61.9418 3.99778 61.353 4.08278 60.8734 4.25266C60.3937 4.4224 60.0012 4.64184 59.6961 4.91073C59.3908 5.17962 59.1728 5.47693 59.0419 5.80253C58.9111 6.12813 58.8458 6.43958 58.8458 6.73677C58.8458 7.33125 58.9548 7.80544 59.1729 8.15933C59.3908 8.51322 59.7325 8.78925 60.1975 8.98741C60.5174 9.12887 60.8806 9.2563 61.2876 9.36972C61.6946 9.48288 62.167 9.60318 62.7048 9.73049C63.1845 9.84391 63.6569 9.95707 64.122 10.0702C64.5872 10.1835 64.9977 10.3357 65.3539 10.5267C65.71 10.7179 66.0008 10.962 66.226 11.2593C66.4513 11.5565 66.564 11.9458 66.564 12.427C66.564 12.8942 66.4513 13.2905 66.226 13.616C66.0026 13.9399 65.7086 14.2118 65.3649 14.4124C65.0159 14.6175 64.6271 14.7661 64.1983 14.8581C63.7696 14.9501 63.3516 14.9962 62.9447 14.9962C61.6219 14.9962 60.6082 14.7095 59.9032 14.1363C59.1982 13.563 58.8458 12.6606 58.8458 11.4291H58.4097C58.4097 12.8022 58.7912 13.8072 59.5544 14.4442C60.3174 15.0812 61.4475 15.3996 62.9447 15.3996C63.4244 15.3996 63.9077 15.3465 64.3946 15.2403C64.8814 15.1342 65.3175 14.9608 65.7028 14.7201C66.0846 14.4828 66.4054 14.1632 66.6403 13.786C66.8801 13.4037 67 12.9367 67 12.3846C67 11.8608 66.8947 11.4362 66.6838 11.1106C66.4732 10.7852 66.197 10.5161 65.8554 10.3038C65.5138 10.0915 65.1286 9.92521 64.6999 9.80492C64.2686 9.6839 63.8362 9.56708 63.4025 9.45447C62.8689 9.31812 62.3347 9.18367 61.8 9.05113C61.3422 8.93784 60.917 8.8034 60.5246 8.64767C60.1466 8.49194 59.845 8.26906 59.6198 7.97888C59.3945 7.68871 59.2818 7.27467 59.2818 6.73677C59.2818 6.63775 59.3108 6.46074 59.3691 6.20599C59.4272 5.95112 59.5654 5.69281 59.7832 5.43093C60.0013 5.16917 60.3356 4.93558 60.7861 4.73028C61.2368 4.52511 61.8545 4.4224 62.6395 4.4224C63.1773 4.4224 63.6678 4.47911 64.1112 4.59227C64.5545 4.70556 64.936 4.88601 65.2558 5.13375C65.5756 5.38148 65.8227 5.69638 65.9971 6.07856C66.1715 6.46087 66.2588 6.92792 66.2588 7.47997H66.2587Z" fill="white"/>
</svg>
