<svg width="46" height="48" viewBox="0 0 46 48" fill="none" xmlns="http://www.w3.org/2000/svg">
<rect width="46" height="48" rx="23" fill="#171717"/>
<path fill-rule="evenodd" clip-rule="evenodd" d="M22.9953 11C19.7456 11.0017 16.6026 12.1526 14.1281 14.247C11.6536 16.3414 10.0091 19.2427 9.48849 22.4321C8.96792 25.6215 9.60527 28.8911 11.2866 31.6561C12.9679 34.4211 15.5836 36.5013 18.6659 37.5248C19.3459 37.651 19.602 37.2295 19.602 36.8712C19.602 36.5128 19.5884 35.4738 19.5839 34.3379C15.7759 35.1606 14.9712 32.731 14.9712 32.731C14.3501 31.1533 13.4525 30.7386 13.4525 30.7386C12.2104 29.8957 13.5455 29.9115 13.5455 29.9115C14.9214 30.0084 15.6444 31.3156 15.6444 31.3156C16.8639 33.3958 18.8472 32.7941 19.627 32.4425C19.7494 31.5613 20.1052 30.9618 20.4974 30.6214C17.4555 30.2789 14.2595 29.1114 14.2595 23.8961C14.2406 22.5436 14.7454 21.2356 15.6694 20.2428C15.5288 19.9002 15.0596 18.5164 15.8031 16.6367C15.8031 16.6367 16.9523 16.2716 19.568 18.0318C21.8117 17.4217 24.1788 17.4217 26.4225 18.0318C29.0359 16.2716 30.1829 16.6367 30.1829 16.6367C30.9286 18.5119 30.4594 19.8957 30.3189 20.2428C31.2458 21.2358 31.7516 22.546 31.731 23.9007C31.731 29.1272 28.5282 30.2789 25.4818 30.6147C25.9714 31.0384 26.4089 31.8655 26.4089 33.1367C26.4089 34.9577 26.393 36.4227 26.393 36.8712C26.393 37.234 26.6401 37.6577 27.3337 37.5248C30.4163 36.5012 33.0322 34.4206 34.7135 31.6551C36.3948 28.8896 37.0319 25.6196 36.5107 22.4299C35.9895 19.2402 34.3442 16.3389 31.8689 14.2449C29.3936 12.1508 26.2498 11.0006 22.9998 11H22.9953Z" fill="white"/>
<path d="M14.4904 30.5425C14.4609 30.6101 14.3521 30.6304 14.2637 30.5831C14.1753 30.5358 14.1096 30.4479 14.1413 30.378C14.1731 30.3081 14.2796 30.2901 14.368 30.3374C14.4564 30.3847 14.5244 30.4749 14.4904 30.5425Z" fill="white"/>
<path d="M15.0456 31.1577C14.9987 31.1812 14.9449 31.1878 14.8937 31.1763C14.8424 31.1648 14.7968 31.1359 14.7645 31.0946C14.6761 30.9999 14.658 30.8692 14.726 30.8106C14.794 30.752 14.9164 30.7791 15.0048 30.8737C15.0932 30.9684 15.1136 31.0991 15.0456 31.1577Z" fill="white"/>
<path d="M15.5852 31.9399C15.5013 31.9985 15.3585 31.9399 15.2792 31.8227C15.2573 31.8017 15.2398 31.7764 15.2279 31.7486C15.216 31.7207 15.2098 31.6907 15.2098 31.6604C15.2098 31.6301 15.216 31.6001 15.2279 31.5722C15.2398 31.5444 15.2573 31.5192 15.2792 31.4981C15.3631 31.4418 15.5059 31.4981 15.5852 31.6131C15.6645 31.728 15.6668 31.8813 15.5852 31.9399Z" fill="white"/>
<path d="M16.3174 32.697C16.2426 32.7804 16.0907 32.7579 15.966 32.6452C15.8414 32.5325 15.8119 32.3793 15.8867 32.2981C15.9615 32.217 16.1133 32.2395 16.2425 32.35C16.3717 32.4604 16.3967 32.6159 16.3174 32.697Z" fill="white"/>
<path d="M17.3441 33.1388C17.3101 33.2448 17.156 33.2921 17.0018 33.247C16.8477 33.2019 16.7457 33.0757 16.7752 32.9676C16.8046 32.8594 16.961 32.8098 17.1174 32.8594C17.2738 32.909 17.3736 33.0284 17.3441 33.1388Z" fill="white"/>
<path d="M18.464 33.2155C18.464 33.3259 18.337 33.4206 18.1738 33.4228C18.0106 33.4251 17.8769 33.3349 17.8769 33.2245C17.8769 33.114 18.0038 33.0194 18.167 33.0171C18.3302 33.0149 18.464 33.1028 18.464 33.2155Z" fill="white"/>
<path d="M19.5065 33.0421C19.5269 33.1525 19.4136 33.2674 19.2504 33.2945C19.0872 33.3215 18.9444 33.2562 18.924 33.148C18.9036 33.0398 19.0215 32.9226 19.1801 32.8933C19.3388 32.864 19.4861 32.9316 19.5065 33.0421Z" fill="white"/>
</svg>
