<svg width="35" height="42" viewBox="0 0 35 42" fill="none" xmlns="http://www.w3.org/2000/svg">
<path d="M0 2.50024V37.5002H35V2.50024H0ZM19.0469 29.7971C19.0469 33.2033 17.0469 34.758 14.1328 34.758C11.5 34.758 9.97656 33.3986 9.19532 31.7501L11.875 30.1331C12.3906 31.0471 12.8594 31.8206 13.9922 31.8206C15.0703 31.8206 15.7578 31.3987 15.7578 29.7502V18.5706H19.0469V29.7971ZM26.8282 34.758C23.7734 34.758 21.7969 33.3048 20.8359 31.3987L23.5156 29.8517C24.2188 31.0002 25.1407 31.8519 26.7577 31.8519C28.1171 31.8519 28.9921 31.1722 28.9921 30.2267C28.9921 29.1018 28.1015 28.7033 26.5937 28.0392L25.7735 27.6878C23.3984 26.68 21.8281 25.4065 21.8281 22.7268C21.8281 20.2581 23.7109 18.3831 26.6406 18.3831C28.7343 18.3831 30.2344 19.1096 31.3124 21.0159L28.7499 22.6565C28.1876 21.6487 27.5781 21.2503 26.6329 21.2503C25.6718 21.2503 25.0626 21.8596 25.0626 22.6565C25.0626 23.6409 25.6718 24.0394 27.086 24.6566L27.9062 25.008C30.7032 26.2033 32.2735 27.43 32.2735 30.18C32.2735 33.1331 29.9453 34.758 26.8282 34.758Z" fill="#F7E038"/>
</svg>
