<svg width="30" height="30" viewBox="0 0 30 30" fill="none" xmlns="http://www.w3.org/2000/svg">
<path d="M27.6151 23.1199C25.9841 23.0786 24.72 23.2443 23.6598 23.6999C23.3539 23.824 22.8645 23.8242 22.8237 24.2177C22.9869 24.3834 23.0073 24.6527 23.15 24.8804C23.3949 25.2946 23.8228 25.8539 24.2102 26.144C24.6383 26.4753 25.0666 26.8066 25.515 27.0966C26.3102 27.5937 27.2074 27.8836 27.9821 28.3807C28.4308 28.6705 28.8791 29.0435 29.3277 29.3541C29.5519 29.5196 29.6946 29.7891 29.9802 29.8926V29.8305C29.8373 29.644 29.7965 29.3748 29.6539 29.1677C29.4502 28.9606 29.2461 28.7741 29.0422 28.567C28.451 27.7594 27.717 27.0551 26.9219 26.4753C26.2695 26.0196 24.8422 25.3983 24.5772 24.6319C24.5772 24.6319 24.5567 24.6113 24.5364 24.5906C24.9849 24.5491 25.515 24.3834 25.9433 24.2591C26.6364 24.0726 27.2684 24.1141 27.9821 23.9277C28.3082 23.8449 28.6345 23.7413 28.9606 23.6377V23.4514C28.5938 23.0786 28.3287 22.5816 27.9413 22.2294C26.9015 21.3179 25.7596 20.4275 24.5772 19.6819C23.9451 19.2676 23.1295 18.9983 22.4567 18.6463C22.2123 18.5219 21.8043 18.4599 21.6617 18.2527C21.2946 17.7972 21.0907 17.1966 20.8257 16.658C20.2346 15.5188 19.6635 14.2555 19.1538 13.0543C18.787 12.2465 18.5627 11.4386 18.1141 10.6932C16.0141 7.17219 13.7306 5.03891 10.2239 2.94694C9.46941 2.51207 8.57234 2.32565 7.6141 2.09791C7.10457 2.07708 6.59468 2.03577 6.08503 2.01494C5.75878 1.86994 5.43254 1.4765 5.14707 1.29008C3.98515 0.544382 0.987848 -1.07093 0.131559 1.06234C-0.418988 2.4085 0.947184 3.73394 1.41593 4.41762C1.76281 4.89391 2.21117 5.43235 2.45586 5.97091C2.59859 6.32281 2.63925 6.69589 2.78199 7.06862C3.10836 7.97967 3.41398 8.99476 3.8423 9.84403C4.0666 10.2789 4.31117 10.7345 4.59664 11.128C4.75976 11.3558 5.04511 11.4595 5.1064 11.8322C4.82105 12.2465 4.80054 12.8679 4.6373 13.3856C3.90336 15.726 4.18894 18.6256 5.22863 20.3446C5.55476 20.8622 6.32961 22.0017 7.36941 21.5666C8.28699 21.1939 8.08308 20.0133 8.34793 18.9777C8.40933 18.7289 8.36855 18.5634 8.49078 18.3977V18.4393C8.77625 19.019 9.0616 19.5784 9.32667 20.1583C9.95878 21.173 11.0596 22.2294 11.9771 22.9337C12.4666 23.3063 12.8539 23.9484 13.4656 24.1763V24.114H13.4247C13.3024 23.9276 13.1189 23.8449 12.9559 23.6997C12.5889 23.3271 12.181 22.8714 11.8957 22.4572C11.0395 21.2972 10.2849 20.0132 9.61214 18.6876C9.28601 18.0457 9.00043 17.3415 8.73546 16.6994C8.613 16.4506 8.613 16.078 8.40921 15.9539C8.10336 16.4095 7.65488 16.803 7.43058 17.3622C7.04339 18.2527 7.0025 19.3505 6.85976 20.4895C6.7782 20.5104 6.81886 20.4895 6.77808 20.5311C6.12582 20.3652 5.90152 19.6819 5.65671 19.1019C5.045 17.6314 4.94304 15.2703 5.47332 13.572C5.61605 13.137 6.22777 11.7702 5.98308 11.3559C5.86074 10.9623 5.45281 10.7345 5.22863 10.4239C4.96367 10.0303 4.67808 9.53344 4.49468 9.09833C4.00531 7.93848 3.76062 6.65435 3.23058 5.49449C2.98589 4.95594 2.55793 4.3969 2.21117 3.89977C1.82386 3.34062 1.39566 2.94694 1.0898 2.28422C0.987965 2.05649 0.845113 1.68364 1.00824 1.43507C1.04902 1.26936 1.13046 1.20734 1.29371 1.16591C1.55879 0.937943 2.31324 1.22794 2.57808 1.35222C3.33254 1.66269 3.96453 1.95292 4.59664 2.38779C4.88199 2.59492 5.18785 2.98849 5.55476 3.09206H5.98296C6.63546 3.23693 7.36929 3.13348 7.98101 3.31979C9.06171 3.6718 10.0402 4.18965 10.917 4.74892C13.588 6.46792 15.7897 8.91191 17.2782 11.8322C17.5229 12.3084 17.6247 12.7436 17.849 13.2405C18.2773 14.2555 18.8074 15.291 19.2353 16.2852C19.6635 17.2585 20.0712 18.2527 20.683 19.0606C20.9888 19.4953 22.212 19.7233 22.7626 19.9512C23.1704 20.1375 23.8025 20.3033 24.1694 20.531C24.8626 20.9658 25.5557 21.4631 26.2082 21.9393C26.5345 22.1879 27.5538 22.7057 27.6151 23.1199Z" fill="#ffffff"/>
<path d="M6.81869 5.12158C6.47217 5.12158 6.2276 5.16325 5.98291 5.22527V5.2667H6.02369C6.18693 5.59812 6.47217 5.82597 6.67596 6.11584C6.8392 6.44714 6.98182 6.77868 7.14506 7.1101C7.16533 7.08927 7.18572 7.06868 7.18572 7.06868C7.47131 6.86142 7.61393 6.53012 7.61393 6.03299C7.49158 5.88811 7.47119 5.74311 7.36924 5.59812C7.24701 5.39086 6.98182 5.28741 6.81869 5.12158Z" fill="#fff"/>
</svg>
