<svg width="37" height="37" viewBox="0 0 37 37" fill="none" xmlns="http://www.w3.org/2000/svg">
<path d="M17.2897 0.0289906C17.2102 0.0362164 16.9573 0.0615069 16.7297 0.0795716C11.4801 0.552865 6.56288 3.3854 3.44854 7.73898C1.71433 10.1596 0.605165 12.9055 0.186065 15.8139C0.0379354 16.8291 0.0198708 17.129 0.0198708 18.5055C0.0198708 19.882 0.0379354 20.1819 0.186065 21.1971C1.19046 28.1376 6.12933 33.9688 12.8277 36.1294C14.0272 36.516 15.2917 36.7797 16.7297 36.9387C17.2897 37.0001 19.7103 37.0001 20.2703 36.9387C22.7524 36.6641 24.8551 36.0499 26.929 34.9913C27.2469 34.8287 27.3083 34.7854 27.265 34.7492C27.2361 34.7276 25.8812 32.9103 24.2554 30.7136L21.3 26.7213L17.5968 21.2405C15.5591 18.2273 13.8827 15.7633 13.8682 15.7633C13.8538 15.7597 13.8393 18.1948 13.8321 21.1682C13.8213 26.3745 13.8176 26.584 13.7526 26.7069C13.6587 26.8839 13.5864 26.9561 13.4347 27.0356C13.3191 27.0934 13.2179 27.1043 12.6723 27.1043H12.0473L11.8811 26.9995C11.7727 26.9309 11.6932 26.8405 11.639 26.7358L11.5632 26.5732L11.5704 19.3293L11.5812 12.0817L11.6932 11.9408C11.751 11.8649 11.8739 11.7674 11.9606 11.7204C12.1087 11.6482 12.1665 11.6409 12.7916 11.6409C13.5286 11.6409 13.6515 11.6698 13.8429 11.8794C13.8971 11.9372 15.9023 14.9576 18.3013 18.5958C20.7003 22.234 23.9808 27.2018 25.5922 29.6406L28.5187 34.0736L28.6668 33.9761C29.9783 33.1234 31.3656 31.9095 32.464 30.6449C34.8015 27.9605 36.3081 24.6872 36.8139 21.1971C36.9621 20.1819 36.9801 19.882 36.9801 18.5055C36.9801 17.129 36.9621 16.8291 36.8139 15.8139C35.8095 8.87344 30.8707 3.04217 24.1723 0.881642C22.9909 0.498671 21.7336 0.234927 20.3245 0.0759586C19.9777 0.0398293 17.5895 8.7142e-05 17.2897 0.0289906ZM24.8551 11.2074C25.0286 11.2941 25.1695 11.4603 25.22 11.6337C25.249 11.7277 25.2562 13.7364 25.2489 18.2634L25.2381 24.7595L24.0928 23.0036L22.9439 21.2477V16.5256C22.9439 13.4727 22.9584 11.7566 22.98 11.6735C23.0378 11.4711 23.1643 11.3122 23.3377 11.2182C23.4858 11.1424 23.54 11.1351 24.1073 11.1351C24.642 11.1351 24.7359 11.1424 24.8551 11.2074Z" fill="black"/>
<path d="M28.338 34.153C28.2116 34.2325 28.1718 34.2867 28.2838 34.2253C28.3633 34.1783 28.4934 34.0808 28.4717 34.0771C28.4608 34.0771 28.3994 34.1133 28.338 34.153ZM28.0887 34.3156C28.0237 34.3662 28.0237 34.3698 28.1032 34.3301C28.1465 34.3084 28.1826 34.2831 28.1826 34.2759C28.1826 34.247 28.1646 34.2542 28.0887 34.3156ZM27.9081 34.424C27.843 34.4746 27.843 34.4782 27.9225 34.4384C27.9659 34.4168 28.002 34.3915 28.002 34.3842C28.002 34.3553 27.9839 34.3626 27.9081 34.424ZM27.7274 34.5324C27.6624 34.583 27.6624 34.5866 27.7419 34.5468C27.7852 34.5252 27.8214 34.4999 27.8214 34.4926C27.8214 34.4637 27.8033 34.471 27.7274 34.5324ZM27.4528 34.6769C27.3155 34.7492 27.3228 34.7781 27.4601 34.7094C27.5215 34.6769 27.5685 34.6444 27.5685 34.6372C27.5685 34.6119 27.5648 34.6155 27.4528 34.6769Z" fill="black"/>
</svg>
