<svg width="32" height="35" viewBox="0 0 32 35" fill="none" xmlns="http://www.w3.org/2000/svg">
<path d="M14.5598 0.444292C15.4299 -0.0503001 16.5631 -0.0525341 17.4324 0.444292C21.8059 2.89851 26.1806 5.34888 30.5533 7.80459C31.3758 8.26468 31.9259 9.17369 31.9175 10.1148V24.8804C31.9236 25.8605 31.3191 26.7912 30.4515 27.2409C26.0924 29.6816 21.7356 32.1252 17.3773 34.5659C16.4893 35.0702 15.3333 35.0314 14.473 34.4858C13.1661 33.7334 11.857 32.9847 10.5501 32.2331C10.283 32.075 9.98194 31.9491 9.79336 31.692C9.96007 31.4688 10.2581 31.441 10.5003 31.3436C11.0458 31.1713 11.5469 30.8948 12.048 30.6265C12.1747 30.5403 12.3294 30.5733 12.4509 30.6504C13.5684 31.2867 14.676 31.9416 15.7973 32.5718C16.0365 32.709 16.2787 32.5269 16.4831 32.4137C20.7607 30.0127 25.0435 27.6208 29.3203 25.2191C29.4788 25.1434 29.5664 24.9763 29.5535 24.8039C29.5565 19.9331 29.5543 15.0614 29.555 10.1906C29.5732 9.99495 29.4592 9.81511 29.2811 9.73505C24.9372 7.30553 20.5955 4.87229 16.2523 2.44215C16.1771 2.39077 16.0879 2.3632 15.9966 2.36307C15.9053 2.36294 15.8161 2.39024 15.7407 2.4414C11.3975 4.87229 7.05658 7.30777 2.71341 9.73717C2.53595 9.81734 2.41685 9.9942 2.43797 10.1906C2.43872 15.0614 2.43797 19.9331 2.43797 24.8047C2.43044 24.8888 2.44904 24.9732 2.49127 25.0465C2.5335 25.1198 2.59733 25.1784 2.67417 25.2146C3.83316 25.8673 4.99366 26.5154 6.15341 27.1659C6.80676 27.5152 7.60896 27.7227 8.3288 27.4551C8.96404 27.2288 9.40932 26.5851 9.3972 25.9152C9.40319 21.0728 9.3942 16.2297 9.4017 11.388C9.38582 11.173 9.59115 10.9954 9.80161 11.0157C10.3585 11.0119 10.9161 11.0082 11.473 11.0171C11.7054 11.0119 11.8654 11.2434 11.8367 11.46C11.8344 16.3331 11.8427 21.2062 11.8329 26.0793C11.8344 27.378 11.2972 28.7912 10.0875 29.4267C8.59737 30.1933 6.75552 30.0307 5.28335 29.2956C4.00888 28.6638 2.79264 27.9183 1.54079 27.2415C0.670856 26.7943 0.0693623 25.8599 0.075486 24.8805V10.1148C0.066363 9.1542 0.638363 8.22869 1.48643 7.7753C5.84472 5.33263 10.2023 2.88809 14.5598 0.444292Z" fill="#8CC84B"/>
<path d="M18.362 10.6724C20.2628 10.5509 22.2977 10.6004 24.0082 11.5304C25.3326 12.2431 26.0668 13.7387 26.0902 15.1999C26.0532 15.397 25.8457 15.5057 25.6563 15.4922C25.1047 15.4915 24.5531 15.4997 24.0016 15.4885C23.7677 15.4974 23.6317 15.2832 23.6023 15.0778C23.4439 14.3787 23.0599 13.6862 22.3973 13.349C21.3802 12.8433 20.2008 12.8687 19.0917 12.8793C18.282 12.922 17.4113 12.9916 16.7253 13.4645C16.1987 13.8226 16.0387 14.5457 16.2267 15.1281C16.4039 15.5462 16.8899 15.6811 17.2876 15.8055C19.5783 16.4005 22.0058 16.3413 24.2528 17.1243C25.1831 17.4435 26.0932 18.0641 26.4116 19.0314C26.8281 20.3279 26.6455 21.8776 25.7167 22.9184C24.9635 23.7749 23.8665 24.2411 22.7724 24.4943C21.3168 24.8166 19.8063 24.8248 18.3281 24.6817C16.9382 24.5243 15.4917 24.1617 14.4187 23.2211C13.5012 22.4299 13.053 21.1971 13.0975 20.0072C13.1081 19.8063 13.3096 19.6662 13.5034 19.6827C14.0588 19.6782 14.6142 19.6767 15.1695 19.6834C15.3914 19.6676 15.5558 19.858 15.5672 20.0657C15.6697 20.7318 15.9218 21.4309 16.5066 21.8259C17.6354 22.5491 19.0517 22.4995 20.3442 22.5198C21.4149 22.4726 22.6169 22.4583 23.4907 21.7555C23.9517 21.3546 24.0883 20.6839 23.9637 20.1069C23.8288 19.6197 23.3156 19.3927 22.875 19.2443C20.6136 18.5339 18.159 18.7917 15.9195 17.9883C15.0103 17.6692 14.1311 17.0659 13.7818 16.1382C13.2945 14.8254 13.5178 13.2015 14.5439 12.1958C15.5445 11.1954 16.9888 10.8102 18.362 10.6723V10.6724Z" fill="#8CC84B"/>
</svg>
