<svg width="38" height="38" viewBox="0 0 38 38" fill="none" xmlns="http://www.w3.org/2000/svg">
<path d="M18.8373 0.0107422C9.21472 0.0107422 9.81554 4.20043 9.81554 4.20043L9.82623 8.54107H19.0089V9.84425H6.17901C6.17901 9.84425 0.0215149 9.14311 0.0215149 18.8912C0.0215149 28.6396 5.39593 28.2939 5.39593 28.2939H8.60336V23.7703C8.60336 23.7703 8.43045 18.3743 13.892 18.3743H22.9996C22.9996 18.3743 28.1165 18.4573 28.1165 13.4091V5.06221C28.1165 5.06221 28.8936 0.0107422 18.8373 0.0107422ZM13.774 2.92974C13.991 2.92954 14.2059 2.97231 14.4064 3.05559C14.6069 3.13887 14.7891 3.26104 14.9425 3.41509C15.096 3.56914 15.2176 3.75206 15.3006 3.95338C15.3835 4.1547 15.4261 4.37046 15.4259 4.58833C15.4261 4.80619 15.3835 5.02196 15.3006 5.22327C15.2176 5.42459 15.096 5.60751 14.9425 5.76156C14.7891 5.91562 14.6069 6.03778 14.4064 6.12106C14.2059 6.20434 13.991 6.24711 13.774 6.24691C13.557 6.24711 13.3421 6.20434 13.1416 6.12106C12.9411 6.03778 12.7589 5.91562 12.6055 5.76156C12.452 5.60751 12.3303 5.42459 12.2474 5.22327C12.1644 5.02196 12.1218 4.80619 12.122 4.58833C12.1218 4.37046 12.1644 4.1547 12.2474 3.95338C12.3303 3.75206 12.452 3.56914 12.6055 3.41509C12.7589 3.26104 12.9411 3.13887 13.1416 3.05559C13.3421 2.97231 13.557 2.92954 13.774 2.92974Z" fill="url(#paint0_linear_4_1163)"/>
<path d="M19.1106 37.8697C28.7332 37.8697 28.1323 33.68 28.1323 33.68L28.1217 29.3395H18.9388V28.0363H31.7687C31.7687 28.0363 37.9262 28.7374 37.9262 18.989C37.9262 9.24075 32.5518 9.58648 32.5518 9.58648H29.3444V14.11C29.3444 14.11 29.5173 19.506 24.0557 19.506H14.9482C14.9482 19.506 9.83127 19.423 9.83127 24.4713V32.8183C9.83127 32.8183 9.05428 37.8697 19.1104 37.8697H19.1106ZM24.1739 34.951C23.9569 34.9512 23.742 34.9084 23.5415 34.8251C23.341 34.7418 23.1588 34.6197 23.0053 34.4656C22.8519 34.3116 22.7302 34.1286 22.6473 33.9273C22.5643 33.726 22.5217 33.5102 22.5219 33.2924C22.5217 33.0745 22.5643 32.8587 22.6472 32.6574C22.7302 32.456 22.8518 32.2731 23.0053 32.119C23.1587 31.965 23.3409 31.8428 23.5414 31.7595C23.742 31.6762 23.9569 31.6334 24.1739 31.6336C24.3909 31.6334 24.6058 31.6762 24.8063 31.7595C25.0068 31.8428 25.189 31.9649 25.3424 32.119C25.4959 32.273 25.6175 32.456 25.7005 32.6573C25.7834 32.8586 25.826 33.0744 25.8258 33.2922C25.826 33.5101 25.7834 33.7258 25.7005 33.9272C25.6175 34.1285 25.4959 34.3114 25.3424 34.4655C25.189 34.6195 25.0068 34.7417 24.8063 34.825C24.6058 34.9082 24.3909 34.951 24.1739 34.9508V34.951Z" fill="url(#paint1_linear_4_1163)"/>
<defs>
<linearGradient id="paint0_linear_4_1163" x1="3.66414" y1="3.41594" x2="22.5231" y2="22.0121" gradientUnits="userSpaceOnUse">
<stop stop-color="#387EB8"/>
<stop offset="1" stop-color="#366994"/>
</linearGradient>
<linearGradient id="paint1_linear_4_1163" x1="15.194" y1="15.4057" x2="35.4426" y2="34.4707" gradientUnits="userSpaceOnUse">
<stop stop-color="#FFE052"/>
<stop offset="1" stop-color="#FFC331"/>
</linearGradient>
</defs>
</svg>
