<svg width="34" height="39" viewBox="0 0 34 39" fill="none" xmlns="http://www.w3.org/2000/svg">
<path d="M34 19.5035C34 17.2362 31.1794 15.0874 26.8549 13.7549C27.8528 9.31793 27.4093 5.78785 25.455 4.65767C25.0045 4.39256 24.4778 4.26699 23.9026 4.26699V5.82273C24.2214 5.82273 24.4778 5.88552 24.6926 6.00412C25.6351 6.54828 26.044 8.62028 25.7252 11.2853C25.649 11.9411 25.5243 12.6317 25.3718 13.3364C24.0135 13.0015 22.5304 12.7434 20.9711 12.5759C20.0355 11.2853 19.0652 10.1132 18.0881 9.0877C20.3473 6.97384 22.468 5.81576 23.9095 5.81576V4.26001C22.0037 4.26001 19.5088 5.62739 16.9861 7.99938C14.4635 5.64134 11.9686 4.28792 10.0628 4.28792V5.84366C11.4973 5.84366 13.6249 6.99477 15.8842 9.09468C14.914 10.1202 13.9437 11.2853 13.022 12.5759C11.4558 12.7434 9.97269 13.0015 8.61435 13.3433C8.45495 12.6457 8.33714 11.969 8.25397 11.3202C7.92825 8.65516 8.33021 6.58316 9.2658 6.03202C9.47371 5.90645 9.74399 5.85064 10.0628 5.85064V4.29489C9.48064 4.29489 8.95393 4.42047 8.49653 4.68557C6.54912 5.81576 6.11251 9.33886 7.11741 13.7619C2.80677 15.1014 0 17.2432 0 19.5035C0 21.7709 2.82063 23.9196 7.14513 25.2521C6.14717 29.6891 6.59071 33.2192 8.54505 34.3494C8.99552 34.6145 9.52222 34.7401 10.1044 34.7401C12.0102 34.7401 14.5051 33.3727 17.0277 31.0007C19.5503 33.3587 22.0452 34.7122 23.9511 34.7122C24.5332 34.7122 25.0599 34.5866 25.5173 34.3215C27.4647 33.1913 27.9013 29.6682 26.8965 25.2451C31.1932 23.9126 34 21.7639 34 19.5035ZM24.9768 14.8502C24.7203 15.7502 24.4015 16.6781 24.0412 17.6059C23.757 17.0478 23.459 16.4897 23.1333 15.9316C22.8145 15.3735 22.4749 14.8293 22.1353 14.2991C23.1194 14.4456 24.0689 14.627 24.9768 14.8502ZM21.8027 22.2801C21.2621 23.222 20.7077 24.1149 20.1325 24.9451C19.0999 25.0358 18.0534 25.0847 17 25.0847C15.9535 25.0847 14.9071 25.0358 13.8814 24.9521C13.3062 24.1219 12.7448 23.2359 12.2042 22.3011C11.6775 21.3872 11.1993 20.4593 10.7627 19.5245C11.1924 18.5896 11.6775 17.6548 12.1973 16.7409C12.7379 15.799 13.2923 14.9061 13.8675 14.0759C14.9001 13.9852 15.9466 13.9363 17 13.9363C18.0465 13.9363 19.0929 13.9852 20.1186 14.0689C20.6938 14.8991 21.2552 15.7851 21.7958 16.7199C22.3225 17.6338 22.8007 18.5617 23.2373 19.4965C22.8007 20.4314 22.3225 21.3662 21.8027 22.2801ZM24.0412 21.3732C24.4154 22.3081 24.7342 23.2429 24.9976 24.1498C24.0897 24.3731 23.1333 24.5614 22.1423 24.7079C22.4819 24.1708 22.8214 23.6196 23.1402 23.0545C23.459 22.4964 23.757 21.9313 24.0412 21.3732ZM17.0139 28.8171C16.3693 28.1473 15.7248 27.4009 15.0872 26.5846C15.711 26.6125 16.3486 26.6334 16.9931 26.6334C17.6445 26.6334 18.289 26.6195 18.9197 26.5846C18.296 27.4009 17.6514 28.1473 17.0139 28.8171ZM11.8577 24.7079C10.8736 24.5614 9.92417 24.3801 9.01631 24.1568C9.27273 23.2568 9.59152 22.329 9.95189 21.4011C10.236 21.9592 10.534 22.5173 10.8598 23.0755C11.1855 23.6336 11.5181 24.1777 11.8577 24.7079ZM16.9792 10.19C17.6237 10.8597 18.2682 11.6062 18.9058 12.4224C18.2821 12.3945 17.6445 12.3736 17 12.3736C16.3486 12.3736 15.704 12.3876 15.0734 12.4224C15.6971 11.6062 16.3416 10.8597 16.9792 10.19ZM11.8508 14.2991C11.5112 14.8363 11.1716 15.3874 10.8528 15.9525C10.534 16.5106 10.236 17.0687 9.95189 17.6269C9.57766 16.692 9.25887 15.7572 8.99552 14.8502C9.90338 14.634 10.8598 14.4456 11.8508 14.2991ZM5.57888 23.0336C3.12556 21.9802 1.53852 20.5988 1.53852 19.5035C1.53852 18.4082 3.12556 17.0199 5.57888 15.9734C6.17489 15.7153 6.82633 15.4851 7.49857 15.2688C7.8936 16.6362 8.41337 18.0594 9.05789 19.5175C8.4203 20.9686 7.90746 22.3848 7.51937 23.7452C6.83327 23.5289 6.18182 23.2917 5.57888 23.0336ZM9.30738 33.0029C8.36486 32.4588 7.95597 30.3868 8.27477 27.7218C8.351 27.066 8.47575 26.3753 8.62821 25.6707C9.98655 26.0056 11.4696 26.2637 13.0289 26.4311C13.9645 27.7218 14.9348 28.8938 15.9119 29.9193C13.6527 32.0332 11.532 33.1913 10.0905 33.1913C9.77864 33.1843 9.51529 33.1215 9.30738 33.0029ZM25.746 27.6869C26.0717 30.3519 25.6698 32.4239 24.7342 32.975C24.5263 33.1006 24.256 33.1564 23.9372 33.1564C22.5026 33.1564 20.3751 32.0053 18.1158 29.9054C19.086 28.8799 20.0563 27.7148 20.978 26.4242C22.5442 26.2567 24.0273 25.9986 25.3856 25.6567C25.545 26.3614 25.6698 27.0381 25.746 27.6869ZM28.4142 23.0336C27.8182 23.2917 27.1667 23.522 26.4945 23.7382C26.0995 22.3708 25.5797 20.9476 24.9352 19.4896C25.5728 18.0385 26.0856 16.6223 26.4737 15.2619C27.1598 15.4781 27.8112 15.7153 28.4211 15.9734C30.8744 17.0269 32.4615 18.4082 32.4615 19.5035C32.4545 20.5988 30.8675 21.9871 28.4142 23.0336Z" fill="#61DAFB"/>
<path d="M16.9931 22.6916C18.7422 22.6916 20.1602 21.2642 20.1602 19.5034C20.1602 17.7426 18.7422 16.3152 16.9931 16.3152C15.2439 16.3152 13.8259 17.7426 13.8259 19.5034C13.8259 21.2642 15.2439 22.6916 16.9931 22.6916Z" fill="#61DAFB"/>
</svg>
